REM DIRINDEX 1\6,1\2\7,1\2\8,1\2\9,1\3\10,1\3\11,1\4\12,1\4\13,1\4\14,1\5\15,1\5\16,1\5\17
REM DIRNAME cjc041,folder01,folder02,folder03,folder04,folder05,folder06,folder07,folder08,folder09,folder10,folder11,folder12,folder13,folder14,folder15,folder16
TITLE ""
FILE "3Q_t2_0048-0063.mp3" MP3
  TRACK 01 AUDIO
    TITLE "7:cjc041_3555"
    INDEX 01 00:00:00
  TRACK 02 AUDIO
    TITLE "0:"
    INDEX 01 00:01:07
  TRACK 03 AUDIO
    TITLE "8:cjc041_3556"
    INDEX 01 00:01:58
  TRACK 04 AUDIO
    TITLE "0:"
    INDEX 01 00:02:67
  TRACK 05 AUDIO
    TITLE "9:cjc041_3557"
    INDEX 01 00:03:45
  TRACK 06 AUDIO
    TITLE "0:"
    INDEX 01 00:04:62
  TRACK 07 AUDIO
    TITLE "7:cjc041_3558"
    INDEX 01 00:06:47
  TRACK 08 AUDIO
    TITLE "0:"
    INDEX 01 00:07:70
  TRACK 09 AUDIO
    TITLE "8:cjc041_3559"
    INDEX 01 00:08:42
  TRACK 10 AUDIO
    TITLE "0:"
    INDEX 01 00:09:71
  TRACK 11 AUDIO
    TITLE "9:cjc041_3560"
    INDEX 01 00:10:51
  TRACK 12 AUDIO
    TITLE "0:"
    INDEX 01 00:11:74
  TRACK 13 AUDIO
    TITLE "7:cjc041_3561"
    INDEX 01 00:13:55
  TRACK 14 AUDIO
    TITLE "0:"
    INDEX 01 00:15:19
  TRACK 15 AUDIO
    TITLE "8:cjc041_3562"
    INDEX 01 00:15:68
  TRACK 16 AUDIO
    TITLE "0:"
    INDEX 01 00:17:35
  TRACK 17 AUDIO
    TITLE "9:cjc041_3563"
    INDEX 01 00:18:11
  TRACK 18 AUDIO
    TITLE "0:"
    INDEX 01 00:19:60
  TRACK 19 AUDIO
    TITLE "7:cjc041_3564"
    INDEX 01 00:21:37
  TRACK 20 AUDIO
    TITLE "0:"
    INDEX 01 00:22:60
  TRACK 21 AUDIO
    TITLE "8:cjc041_3565"
    INDEX 01 00:23:34
  TRACK 22 AUDIO
    TITLE "0:"
    INDEX 01 00:25:70
  TRACK 23 AUDIO
    TITLE "9:cjc041_3566"
    INDEX 01 00:26:46
  TRACK 24 AUDIO
    TITLE "0:"
    INDEX 01 00:27:73
  TRACK 25 AUDIO
    TITLE "7:cjc041_3567"
    INDEX 01 00:29:56
  TRACK 26 AUDIO
    TITLE "0:"
    INDEX 01 00:31:00
  TRACK 27 AUDIO
    TITLE "8:cjc041_3568"
    INDEX 01 00:31:51
  TRACK 28 AUDIO
    TITLE "0:"
    INDEX 01 00:32:74
  TRACK 29 AUDIO
    TITLE "9:cjc041_3569"
    INDEX 01 00:33:50
  TRACK 30 AUDIO
    TITLE "0:"
    INDEX 01 00:34:71
  TRACK 31 AUDIO
    TITLE "7:cjc041_3570"
    INDEX 01 00:36:52
  TRACK 32 AUDIO
    TITLE "0:"
    INDEX 01 00:37:59
  TRACK 33 AUDIO
    TITLE "8:cjc041_3571"
    INDEX 01 00:38:33
  TRACK 34 AUDIO
    TITLE "0:"
    INDEX 01 00:39:64
  TRACK 35 AUDIO
    TITLE "9:cjc041_3572"
    INDEX 01 00:40:40
  TRACK 36 AUDIO
    TITLE "0:"
    INDEX 01 00:41:47
  TRACK 37 AUDIO
    TITLE "7:cjc041_3573"
    INDEX 01 00:43:21
  TRACK 38 AUDIO
    TITLE "0:"
    INDEX 01 00:44:34
  TRACK 39 AUDIO
    TITLE "8:cjc041_3574"
    INDEX 01 00:45:08
  TRACK 40 AUDIO
    TITLE "0:"
    INDEX 01 00:49:16
  TRACK 41 AUDIO
    TITLE "9:cjc041_3575"
    INDEX 01 00:49:67
  TRACK 42 AUDIO
    TITLE "0:"
    INDEX 01 00:51:03
  TRACK 43 AUDIO
    TITLE "7:cjc041_3576"
    INDEX 01 00:52:55
  TRACK 44 AUDIO
    TITLE "0:"
    INDEX 01 00:53:62
  TRACK 45 AUDIO
    TITLE "8:cjc041_3577"
    INDEX 01 00:54:34
  TRACK 46 AUDIO
    TITLE "0:"
    INDEX 01 00:55:30
  TRACK 47 AUDIO
    TITLE "9:cjc041_3578"
    INDEX 01 00:56:08
  TRACK 48 AUDIO
    TITLE "0:"
    INDEX 01 00:57:17
  TRACK 49 AUDIO
    TITLE "7:cjc041_3579"
    INDEX 01 00:58:71
  TRACK 50 AUDIO
    TITLE "0:"
    INDEX 01 01:00:25
  TRACK 51 AUDIO
    TITLE "8:cjc041_3580"
    INDEX 01 01:00:72
  TRACK 52 AUDIO
    TITLE "0:"
    INDEX 01 01:02:26
  TRACK 53 AUDIO
    TITLE "9:cjc041_3581"
    INDEX 01 01:03:02
  TRACK 54 AUDIO
    TITLE "0:"
    INDEX 01 01:04:35
  TRACK 55 AUDIO
    TITLE "7:cjc041_3582"
    INDEX 01 01:06:18
  TRACK 56 AUDIO
    TITLE "0:"
    INDEX 01 01:07:27
  TRACK 57 AUDIO
    TITLE "8:cjc041_3583"
    INDEX 01 01:08:03
  TRACK 58 AUDIO
    TITLE "0:"
    INDEX 01 01:10:39
  TRACK 59 AUDIO
    TITLE "9:cjc041_3584"
    INDEX 01 01:11:17
  TRACK 60 AUDIO
    TITLE "0:"
    INDEX 01 01:12:28
  TRACK 61 AUDIO
    TITLE "7:cjc041_3585"
    INDEX 01 01:14:06
  TRACK 62 AUDIO
    TITLE "0:"
    INDEX 01 01:15:27
  TRACK 63 AUDIO
    TITLE "8:cjc041_3586"
    INDEX 01 01:16:03
  TRACK 64 AUDIO
    TITLE "0:"
    INDEX 01 01:18:13
  TRACK 65 AUDIO
    TITLE "9:cjc041_3587"
    INDEX 01 01:18:56
  TRACK 66 AUDIO
    TITLE "0:"
    INDEX 01 01:20:08
  TRACK 67 AUDIO
    TITLE "7:cjc041_3588"
    INDEX 01 01:21:57
  TRACK 68 AUDIO
    TITLE "0:"
    INDEX 01 01:23:05
  TRACK 69 AUDIO
    TITLE "8:cjc041_3589"
    INDEX 01 01:23:56
  TRACK 70 AUDIO
    TITLE "0:"
    INDEX 01 01:25:09
  TRACK 71 AUDIO
    TITLE "9:cjc041_3590"
    INDEX 01 01:25:53
  TRACK 72 AUDIO
    TITLE "0:"
    INDEX 01 01:27:03
  TRACK 73 AUDIO
    TITLE "7:cjc041_3591"
    INDEX 01 01:28:57
  TRACK 74 AUDIO
    TITLE "0:"
    INDEX 01 01:30:13
  TRACK 75 AUDIO
    TITLE "8:cjc041_3592"
    INDEX 01 01:30:64
  TRACK 76 AUDIO
    TITLE "0:"
    INDEX 01 01:32:23
  TRACK 77 AUDIO
    TITLE "9:cjc041_3593"
    INDEX 01 01:32:74
  TRACK 78 AUDIO
    TITLE "0:"
    INDEX 01 01:34:36
  TRACK 79 AUDIO
    TITLE "7:cjc041_3594"
    INDEX 01 01:36:13
  TRACK 80 AUDIO
    TITLE "0:"
    INDEX 01 01:37:32
  TRACK 81 AUDIO
    TITLE "8:cjc041_3595"
    INDEX 01 01:38:08
  TRACK 82 AUDIO
    TITLE "0:"
    INDEX 01 01:43:11
  TRACK 83 AUDIO
    TITLE "9:cjc041_3596"
    INDEX 01 01:43:64
  TRACK 84 AUDIO
    TITLE "0:"
    INDEX 01 01:45:12
  TRACK 85 AUDIO
    TITLE "7:cjc041_3597"
    INDEX 01 01:46:66
  TRACK 86 AUDIO
    TITLE "0:"
    INDEX 01 01:48:07
  TRACK 87 AUDIO
    TITLE "8:cjc041_3598"
    INDEX 01 01:48:58
  TRACK 88 AUDIO
    TITLE "0:"
    INDEX 01 01:49:69
  TRACK 89 AUDIO
    TITLE "9:cjc041_3599"
    INDEX 01 01:50:47
  TRACK 90 AUDIO
    TITLE "0:"
    INDEX 01 01:51:68
  TRACK 91 AUDIO
    TITLE "7:cjc041_3600"
    INDEX 01 01:53:47
  TRACK 92 AUDIO
    TITLE "0:"
    INDEX 01 01:54:64
  TRACK 93 AUDIO
    TITLE "8:cjc041_3601"
    INDEX 01 01:55:38
  TRACK 94 AUDIO
    TITLE "0:"
    INDEX 01 01:56:69
  TRACK 95 AUDIO
    TITLE "9:cjc041_3602"
    INDEX 01 01:57:45
  TRACK 96 AUDIO
    TITLE "0:"
    INDEX 01 01:58:62
